<?xml version="1.0" encoding="UTF-8"?>
<!DOCTYPE svg PUBLIC "-//W3C//DTD SVG 1.1//EN" "http://www.w3.org/Graphics/SVG/1.1/DTD/svg11.dtd">
<!-- Creator: CorelDRAW 2020 (64-Bit) -->
<svg xmlns="http://www.w3.org/2000/svg" xml:space="preserve" width="594mm" height="420mm" version="1.1" style="shape-rendering:geometricPrecision; text-rendering:geometricPrecision; image-rendering:optimizeQuality; fill-rule:evenodd; clip-rule:evenodd" viewBox="0 0 59400 42000"
    xmlns:xlink="http://www.w3.org/1999/xlink"
    xmlns:xodm="http://www.corel.com/coreldraw/odm/2003">
    <defs>
        <style type="text/css">
            <![CDATA[
                .fil0 {fill:#B54125}
                .fil1 {fill:#B56535}
            ]]>
        </style>
    </defs>
    <g id="Слой_x0020_1">
        <metadata id="CorelCorpID_0Corel-Layer" />
        <g id="_1780139705360">
            <path class="fil0" d="M17411.37 23071.28c56.65,-259.14 495.46,-932.19 658.96,-1172.72 84.17,-123.81 160.88,-240.85 246.4,-358.21l514.4 -703.22c43.6,-60.6 89.3,-113.78 133.07,-173.34l402.32 -508.66c93.11,-111.08 392.81,-485.72 489.56,-583.31 28.04,-28.27 35.74,-42.99 68.34,-76.25l217.91 -242.09c81.09,-92.34 426.43,-423.82 541.88,-522.31 117.58,-100.3 266.83,-257.47 394.45,-371.99 76.28,-68.46 232.78,-228.89 310.99,-293.24l243.26 -208.08c263.24,-217.96 583.5,-441.87 873.05,-642.56 380.67,-263.84 1127.57,-722.46 1512.25,-922.86 267.6,-139.41 521.67,-282.34 797.15,-420.02 543.95,-271.84 1092.71,-519.36 1667.53,-767.89 282.93,-122.34 574.59,-240.73 865.1,-352.5 875.71,-336.97 1786.17,-661.06 2672.65,-971.45 597.31,-209.14 1199.34,-421.4 1794.96,-640.08 597.8,-219.46 1196.66,-423.38 1795.09,-640.02 595.51,-215.56 1191.72,-430.52 1788.66,-637.95 601.22,-208.91 1194.63,-425.77 1794.41,-640.65 598.67,-214.48 1199.51,-421.58 1795.04,-640.05 456.62,-167.49 3349.92,-1279.79 3668.65,-1178.26 93.48,-46.5 194.25,-130.65 279.74,-194.79l357.64 -280.94c126.25,-101.88 629.19,-596.37 739.8,-707.62 13.98,-14.06 23.58,-25.29 38.71,-37.93 18.75,-15.67 23.48,-16.1 42.35,-34.27l161.54 -162.01c30.41,-30.77 54.28,-45.19 85.24,-76.52 66,-66.77 130.75,-138.73 203.45,-196.73 73.13,-58.34 130.84,-137.37 201.02,-199.16 83.61,-73.63 162.04,-170 248.97,-236.34 54.61,-41.67 417.92,-400.93 480.4,-481.71l433.28 -528.84c48.97,-59.97 90.47,-115.05 138.5,-176.53 200.07,-256.08 393.34,-517.4 575.65,-786.64 14.41,-21.26 20.93,-27.51 35.93,-49.2l447.41 -676.49c82.32,-136.65 163.53,-268.65 233.21,-413.87l70.67 -167.73c8.05,-24.36 11.07,-46.4 20.05,-65.1 -61.99,14.44 -1095.46,543.46 -1149.44,570.45 -47.8,23.9 -91.71,45.76 -141.84,71.02 -50.33,25.37 -94.33,42.81 -144.8,68.05 -95.53,47.76 -193.35,103.17 -289.87,144.36 -55.51,23.7 -92.04,42.2 -144.36,68.51l-439.81 207.27c-141.57,71.22 -297.34,129.35 -440,198.57 -378.85,183.79 -1115.14,470.14 -1542.18,611.94 -995.81,330.66 -1553.19,456.85 -2603.04,632.4 -506.06,84.62 -1006.88,142.34 -1515.24,204.64 -251.87,30.87 -511.98,63.47 -767.84,92.11 -703.85,78.77 -1407.62,180.17 -2110.03,256.93l-579.71 67.39c-386.74,36.93 -778.26,93.04 -1167.48,126.7 -127.52,11.02 -261.59,27.62 -384.43,41.28 -647.38,71.96 -1293.66,129.17 -1936.05,218.06 -258.57,35.78 -508.03,63.46 -760.97,98.98 -994.45,139.62 -1983.4,311.68 -2970.86,477.42 -114.6,19.24 -243.79,43.25 -359.52,66.21 -592.59,117.53 -1189.6,232.14 -1775.27,378.84 -806.79,202.08 -1605.54,386.93 -2400.77,613.29 -223.26,63.56 -441,138.08 -661.08,198.86 -310.02,85.62 -665.51,214.14 -965.21,328.97 -496.83,190.38 -1352.96,532.69 -1792,787.83l-419.68 227.4c-176.71,89.56 -369.12,213.12 -535.27,324.69 -258.63,173.57 -515.41,343.57 -757.22,536.95 -178.75,142.95 -418.81,329.79 -579.86,492.95l-110.75 102.1c-114.95,114.97 -273.5,259.92 -374.57,374.68 -52.01,59.07 -103.95,116.64 -157.67,174.39 -593.9,638.31 -957.77,1320.12 -1381.39,2066.91 -138.77,295.01 -281.86,585.51 -392.61,893.03l-381.09 1125.95c-69.84,218.38 -175.9,629.03 -221.73,851.07 -49.31,238.8 -106.99,466.22 -150.37,709.58 -65.45,367.15 -141.28,745.93 -182.4,1120.28 -51.9,472.49 -34.01,987.97 -34.05,1464.47 26.28,1008.23 131.84,2005.41 216.47,3010.46 23.49,163.75 30.1,453.9 51.07,596 21.56,320.59 66.37,699.57 64.57,1016.75l16.98 417.25c67.7,-45.33 422.58,-550.86 487,-645.4 154.68,-227 317.91,-448.06 482.4,-667.03 48.77,-64.92 92.69,-123.5 142.32,-189.72l210.63 -274.69c96.56,-118.56 189.59,-242.23 297.49,-349.6l314.16 -341.44c28.65,-35.79 53.83,-55.73 80.29,-89.99 40.46,-52.41 308.14,-290.11 317.44,-336.99z" />
            <path class="fil0" d="M32755.32 18916.31c0,414.67 -7.24,731.85 -65.56,1134.95 -18.94,130.94 -37.35,251.67 -61.36,372.88 -48.11,242.86 -106.15,471.6 -166.01,710.95 -43.45,173.75 -102.32,333.66 -148.01,499.09 -46.18,167.22 -110.62,331.76 -170.8,493.3 -184.86,496.22 -397.78,966.89 -631.28,1437.69l-113.48 210.08c-28.18,50.44 -47.91,94.3 -77.5,143.87 -28.53,47.81 -48.28,88.03 -76.62,136.24l-422.13 676.22c-201.69,302.5 -412.41,600.16 -641.25,882.8 -35,43.25 -63.86,80.83 -98.28,123.09l-624.88 686.32c-107.78,107.78 -215.85,217.03 -332.44,314.64 -117.84,98.67 -222.95,215.2 -331.67,323.93 -164.96,164.96 -547.42,456.7 -727.68,592.04 -250.73,188.25 -518.16,361.36 -787.35,523.85l-275.77 158.47c-363.95,217.21 -1073.77,545.3 -1474.12,705.54 -770.09,308.21 -1579.08,519.2 -2399.83,656.79 -405.36,67.96 -802.67,98.53 -1212.68,98.53 -281.94,0 -571.93,-17.37 -851.44,-17.03l-1234.27 -76.93c-427.16,-28.8 -1110.45,-141.97 -1509.1,-236.32 -505.75,-119.7 -1017.28,-266.89 -1488.08,-478.72l-451.41 -212.71c8.88,106.62 128.96,274.2 193.32,360.11l213.37 254.92c21.2,21.16 23.98,30.1 42.5,51.14 106.14,120.53 253.43,255.13 370.14,370.6l296.05 265.91c21.94,16.78 28.43,26.31 49.03,44.62l151.68 129.3c36.69,28.71 65.05,58.43 100.88,86.44 290.1,226.66 511.5,417.49 832.04,657.96 71.38,53.55 137.03,102.69 209.14,156.96l327.72 234.23c40.34,26.7 70.5,49.96 110.68,76.63 75.32,49.98 147.54,103.13 225.48,149.16l715.08 400.29c44.92,22.45 80.04,39.86 124.87,62.45 643.03,324.13 1366.1,562.85 2069.47,723.21 315.92,72.02 637.31,117.01 962.33,161.56 59.92,8.21 111.24,8.51 170.33,16.99l260.09 20.89c30.8,0.87 62.06,-2.48 92.69,0.96 182.75,20.5 401.84,7.27 588.72,7.27 465.85,0 942.93,-69.28 1397.15,-160.98 87.9,-17.74 170.87,-39.45 254.63,-60.39 323.63,-80.93 635.94,-188.34 941.45,-310.16l220.1 -94.93c196.55,-81.59 442.47,-213.81 622.77,-322.31l386.85 -243.2c249.24,-165.06 499.37,-333.85 738.29,-513.32 60.96,-45.78 115.29,-86.04 173.83,-132.68 29.71,-23.66 55.31,-44.36 85.15,-68.12l129.14 -109.25c18.64,-15.76 23.45,-16.01 42.31,-34.32l868.31 -860.09c103.78,-103.17 198.3,-225.65 302.2,-327.87 95.37,-93.8 203.54,-235.03 289.71,-340.34 443.62,-542.23 823.32,-1170.37 1171.15,-1791.83 21.32,-38.1 36.11,-70.2 56.48,-105.28 75.14,-129.29 146.15,-282.63 213.24,-416.82 210.22,-420.43 407.19,-855.8 583.95,-1297.72 61.72,-154.31 113.45,-303.98 173.83,-456.22 30.05,-75.77 51.69,-154.19 82.64,-232.39 126.21,-318.83 234.29,-736.18 327.79,-1077.07 10.74,-39.14 23.28,-81.82 34.09,-127.69 39.39,-167.18 80.43,-337.63 112.5,-517.55 66.9,-375.36 132.63,-737.22 132.63,-1127.49l0 -1149.42c0,-335.21 -63.65,-683.44 -124.1,-1008.29 -124.84,-670.73 -518.21,-2134.63 -974.24,-2440.01 0,418.76 25.54,816.38 25.54,1234.58z" />
            <path class="fil1" d="M17411.37 23071.28l91.23 -131.32c13.16,-18.21 18.03,-28.06 31.71,-44.91l139.67 -166.86c91.31,-108.58 198.57,-205.2 298.35,-306.16 185.74,-187.91 621.69,-521.93 834.14,-681.4l538.8 -380.75c58.58,-41.6 115.33,-79.66 177.13,-120.86 63.48,-42.32 121.33,-77.89 185.59,-120.93 34.09,-22.83 59.75,-36.79 93.73,-59.53 34.83,-23.32 56.93,-37.51 93.41,-59.85 66,-40.41 121.96,-78.96 188.17,-118.34l565.13 -337.39c33.64,-19.37 62.68,-34.2 98.11,-55.15 291.82,-172.62 595.5,-323.56 900.57,-470.23 277.97,-133.64 571.19,-240.38 866.74,-350.8 74.27,-27.75 145.29,-52.28 219.06,-78.94l672.49 -247.06c287.62,-116.37 577.28,-221.59 866.08,-342.94 290.52,-122.07 570.05,-235.87 859.95,-357.6 712.63,-299.25 1415.53,-610.05 2126.01,-913.6 391.64,-167.31 770.15,-347.76 1161.74,-515.57l314.53 -136.73c404.77,-189.26 857.69,-373.1 1271.35,-559.22 69.98,-31.5 141.62,-61.61 212.86,-93.67l839.46 -369.55c351.2,-146.65 700.83,-308.69 1050.74,-464.81 32.78,-14.64 69.33,-30.94 105.13,-48.13 37.76,-18.13 67.38,-30.19 104.9,-48.35 20.74,-10.04 35.15,-14.35 53.92,-22.72l1200.5 -553.45c32.95,-16.24 64,-27.37 99.48,-45.27l1328.2 -647.1c234.38,-117.17 463.49,-250.14 698.15,-366.15 39.54,-19.54 62.66,-34.19 99.32,-53.93 70.83,-38.13 129.66,-69.03 198.83,-107.69l783.12 -434.43c132.39,-72.32 251.96,-147.59 383.43,-221.08 66.39,-37.09 124.9,-71.51 189.52,-108.48 576.74,-330 1151.91,-674.74 1713.45,-1028.15 436.37,-274.64 857.58,-557.47 1285.7,-842.87l808.86 -561.95c151.12,-100.29 294.83,-209.02 439.82,-317.95l1038.62 -758.02c1.39,-1.22 3.3,-2.97 4.64,-4.2 13.84,-12.69 3.45,-2.68 13.74,-13.62 -318.73,-101.53 -3212.03,1010.77 -3668.65,1178.26 -595.53,218.47 -1196.37,425.57 -1795.04,640.05 -599.78,214.88 -1193.19,431.74 -1794.41,640.65 -596.94,207.43 -1193.15,422.39 -1788.66,637.95 -598.43,216.64 -1197.29,420.56 -1795.09,640.02 -595.62,218.68 -1197.65,430.94 -1794.96,640.08 -886.48,310.39 -1796.94,634.48 -2672.65,971.45 -290.51,111.77 -582.17,230.16 -865.1,352.5 -574.82,248.53 -1123.58,496.05 -1667.53,767.89 -275.48,137.68 -529.55,280.61 -797.15,420.02 -384.68,200.4 -1131.58,659.02 -1512.25,922.86 -289.55,200.69 -609.81,424.6 -873.05,642.56l-243.26 208.08c-78.21,64.35 -234.71,224.78 -310.99,293.24 -127.62,114.52 -276.87,271.69 -394.45,371.99 -115.45,98.49 -460.79,429.97 -541.88,522.31l-217.91 242.09c-32.6,33.26 -40.3,47.98 -68.34,76.25 -96.75,97.59 -396.45,472.23 -489.56,583.31l-402.32 508.66c-43.77,59.56 -89.47,112.74 -133.07,173.34l-514.4 703.22c-85.52,117.36 -162.23,234.4 -246.4,358.21 -163.5,240.53 -602.31,913.58 -658.96,1172.72z" />
            <path class="fil1" d="M19864.67 26306.72c413.94,219.03 836.73,393.27 1292.34,521.21 467.46,131.29 1062.47,245.07 1568.47,245.07 403.66,0 615.32,6.36 1027.73,-62.09 211.78,-35.15 424.19,-76.11 616.56,-132.7 199.33,-58.62 373.4,-116.57 555.99,-193.27 93.81,-39.41 171.53,-74.95 260.24,-114.39l245.4 -129.23c88.49,-53.48 267.84,-152.78 348.33,-213.6 108.88,-82.29 196.94,-136.51 323.25,-238.71l315.75 -246.19c40.63,-33.26 60.86,-53.04 97.78,-89.54l255.72 -306.22c200.73,-269.05 352.5,-478.31 530.34,-780.85 94.81,-161.29 172.66,-320.53 244.54,-504.73 169.19,-433.59 233.72,-735.3 321.74,-1176.77 23.96,-120.13 58.92,-364.75 67.68,-494.27 3.4,-50.35 14.26,-120.83 16.74,-170.57l8.22 -272.75c1.26,-42.02 7.81,-42.56 9.07,-84.59 2.05,-68.61 -3.76,-124.21 -8.35,-179.52 -4.93,-59.75 4.86,-124.24 -4.03,-183.28 -7.87,-52.26 -10.86,-121.53 -13.69,-173.63 -6.25,-115.51 -53.15,-376.56 -79.73,-482.2 -26.92,-107 -50.16,-194.25 -82.78,-291.86 -28.24,-84.52 -69.81,-189.57 -109.7,-264.93 -52.4,12.21 -102.91,38.82 -156.25,56.61 -230.58,76.88 -621.49,155.91 -867.24,214.08 -796.68,188.54 -1575.36,459.29 -2305.73,819.02l-221.34 110.69c-25.22,13.13 -36.98,22.89 -65.05,37.14l-215.78 116.28c-92.26,47.65 -179.47,102.01 -269.8,155.9 -298.21,177.88 -497.43,322.4 -772.72,529.98 -42.82,32.3 -76.61,61.22 -118.15,94.71l-352.4 294.69c-178.06,149.72 -442.57,414.18 -605.07,578.41l-205.04 229.18c-18.34,22.93 -34.03,34.43 -52.35,58.34 -29.66,38.71 -66.89,73.91 -98.61,114.25 -35.09,44.64 -63.93,79.05 -99.18,122.19l-278.95 368.14c-29.72,42.14 -57.99,79.89 -88.68,124.17l-340.78 527.69c-300.32,499.36 -344.46,644.54 -559.39,1169.01 -39.39,96.14 -87.24,208.69 -135.1,299.13z" />
            <path class="fil1" d="M33283.21 16106.59c202.37,0 542.66,17.78 717.52,-6.18 85.51,-11.73 183.12,2.41 270.18,-2.3 37.87,-2.04 40.84,-8.34 84.76,-8.89 57.89,-0.71 119.69,5.2 175.55,-3.25l871.58 -47.96c336.05,-26.35 666.55,-53 1002.65,-95.69 529.25,-67.22 1066.91,-139.23 1586.82,-243.76 563.98,-113.4 1221.92,-252.29 1762.87,-425.31l559.8 -172.43c89.55,-29.84 185.09,-61.78 274.68,-91.43 268.44,-88.86 537.86,-190.95 801.65,-296.69 90.03,-36.11 172.28,-70.54 260.19,-105.93l886.82 -390.32 610.16 -300.87c382.19,-190.79 937.47,-519.96 1268.12,-741.27l335.5 -217.92c146.66,-97.38 288.08,-197.34 435.92,-296.3 553.4,-370.46 1151.62,-834.9 1685.28,-1235.13l938.94 -704.33c105.45,-76.72 218.27,-158.04 328.85,-224.58l1398.65 -798.04c85.02,-50.71 400.99,-233.85 440.05,-292.17 -115.67,0 -220.03,17.04 -331.32,26.27 -607.19,50.37 -1582.53,238.14 -2157.87,404.94 -194.37,56.34 -374.41,107.49 -562.15,170.09l-1069.57 394.89c-214.31,85.17 -427.7,174.74 -635.65,275.37 -205.93,99.67 -417.81,187.26 -621.74,289.29l-490.89 241.35c-245.62,122.8 -482.48,250.45 -732.19,366.14l-485.23 247.01c-232.54,129.15 -480.35,255.16 -707.57,390.77l-1111.4 617.01c-173.86,100.51 -362.47,187.21 -537.16,288.73 -119.71,69.56 -718.67,364.5 -855.97,421.16 -127.14,52.47 -253.06,118.78 -378.36,175.07 -510.86,229.49 -1032.6,434.73 -1553.11,643.59l-1329.97 492.09c-92.08,31.06 -179.88,68.7 -268.13,97.99 -270.65,89.84 -534.33,200.2 -802.47,295.86 -92.96,33.17 -173.22,65.27 -265.68,100.44 -91.08,34.64 -173.2,65.82 -263.9,102.22l-779.65 318.69c-217.04,89.59 -416.05,187.84 -631.31,279.72 -33.94,14.49 -97.94,38.32 -125.25,62.06z" />
            <path class="fil0" d="M13742.89 32888.27l0 3.38c0.1,70.7 3.18,125.3 8.07,184.38 5.03,60.84 -1.7,133.29 0.17,195.66 1.25,42.08 7.86,42.56 9.07,84.59l17 289.51c15.13,273.69 102.1,760.46 164.84,1035.67 120.94,530.46 318.17,1174.27 516.14,1672.04 19.38,48.75 37.86,96.01 56.33,148.02 58.64,165.22 160.62,405.47 238.74,561.59l394.5 806.02c0,-267.09 66.2,-951.64 106.96,-1204.24 21.01,-130.28 38.13,-257.5 62.59,-380.16 121.5,-609.31 310.28,-1473.9 632.42,-2007l165.15 -277.6c59.24,-90.39 112.68,-181.76 176.13,-266.61l772.47 -989.99c-6.37,-23.86 -21.36,-37.38 -36.46,-57.2l-127.5 -153.48c-22.05,-21.69 -24.14,-28.31 -42.9,-50.76 -14.86,-17.78 -29.9,-30.73 -46.52,-47.13l-178.83 -195.81c-19.29,-20.74 -21.89,-30.23 -42.36,-51.28l-213.9 -262.91c-214.02,-283.66 -409.06,-627.14 -568.91,-946.63 -22.43,-44.82 -37.14,-82.85 -59.6,-127.71 -190.81,-381.07 -422.42,-1123.1 -542.16,-1535.34 -17.03,-58.62 -148.97,-550.43 -150.24,-607.53 -42.92,11.46 -180.51,259.36 -207.03,303.82l-187.54 323.31c-43.19,79.03 -80.87,144.92 -121.96,227.14 -155.07,310.23 -309.54,619.32 -423.31,947.48 -180.43,520.36 -310.32,985.3 -337.32,1544.36 -1.81,37.54 -7.64,35.46 -8.77,76.37 -6.69,243.44 -25.27,512.69 -25.27,758.04z" />
        </g>
    </g>
</svg>