<svg width="288" height="36" xmlns="http://www.w3.org/2000/svg" stroke="white">

 <g>
  <title>Layer 1</title>
  <g stroke-width="5" stroke="null" id="svg_10">
   <path stroke="null" id="svg_1" stroke-dashoffset="0px" pathLength="1" stroke-linecap="round" stroke-width="1.5" fill=" none" d="m31.9,18.65219a10.29,10.29 0 0 0 2.15,-6.49a10,10 0 0 0 -0.55,-3.31a7.27,7.27 0 0 0 -1.72,-2.73a9.64,9.64 0 0 0 -4,-2.28a20.34,20.34 0 0 0 -6.21,-0.81l-11.13,0l-7.94,29.59l8.24,0l2.41,-9l3.63,0l3.93,9l9,0l-4.57,-10a12.11,12.11 0 0 0 6.76,-3.97zm-7.91,-2.53a7.85,7.85 0 0 1 -4.44,1.11l-4.69,0l1.94,-7.15l4.44,0c1.75,0 3,0.34 3.64,1a3,3 0 0 1 0.76,2a3.45,3.45 0 0 1 -1.65,3.04z"/>
   <path stroke="null" id="svg_2" stroke-dashoffset="0px" pathLength="1" stroke-linecap="round" stroke-width="1.5" fill="transparent" d="m50.91,2.82219l-20.58,29.8l8.91,0l3.55,-5.28l11.42,0l0.71,5.28l8.63,0l-4.61,-29.8l-8.03,0zm-4,18.14l5.53,-8.5l1.06,8.5l-6.59,0z"/>
   <path stroke="null" id="svg_3" stroke-dashoffset="0px" pathLength="1" stroke-linecap="round" stroke-width="1.5" fill="transparent" d="m89.41,3.80219a20.64,20.64 0 0 0 -6.08,-0.77l-9.68,0l-8,29.59l8.24,0l2.34,-8.5l4.9,0a20.52,20.52 0 0 0 6,-0.83a13.78,13.78 0 0 0 4.63,-2.37a10.78,10.78 0 0 0 3,-3.76a11.17,11.17 0 0 0 1.07,-5a8.19,8.19 0 0 0 -2.32,-6.05a9.57,9.57 0 0 0 -4.1,-2.31zm-3.7,12.7a7.74,7.74 0 0 1 -4.71,1.24l-3.08,0l2.07,-7.82l3,0a4.78,4.78 0 0 1 3.51,1.14a2.85,2.85 0 0 1 0.84,2.08a4,4 0 0 1 -1.63,3.36z"/>
   <polygon stroke="null" id="svg_4" stroke-dashoffset="0px" pathLength="1" stroke-linecap="round" stroke-width="1.5" fill="transparent" points="126.02000427246094,3.0321884155273438 100.1099853515625,3.0321884155273438 98.16000366210938,10.22219443321228 107.03999328613281,10.22219443321228 100.989990234375,32.62219214439392 109.239990234375,32.62219214439392 115.239990234375,10.22219443321228 124.1099853515625,10.22219443321228 126.02000427246094,3.0321884155273438 "/>
   <path stroke="null" id="svg_5" stroke-dashoffset="0px" pathLength="1" stroke-linecap="round" stroke-width="1.5" fill="transparent" d="m186.71,8.85219a7.27,7.27 0 0 0 -1.72,-2.73a9.64,9.64 0 0 0 -4,-2.28a20.34,20.34 0 0 0 -6.21,-0.81l-11.13,0l-7.94,29.59l8.24,0l2.41,-9l3.63,0l3.93,9l9,0l-4.57,-10a12.11,12.11 0 0 0 6.71,-4a10.29,10.29 0 0 0 2.15,-6.49a10,10 0 0 0 -0.5,-3.28zm-9.51,7.27a7.85,7.85 0 0 1 -4.44,1.11l-4.69,0l1.94,-7.15l4.44,0c1.75,0 3,0.34 3.64,1a3,3 0 0 1 0.76,2a3.45,3.45 0 0 1 -1.65,3.04z"/>
   <polygon stroke="null" id="svg_6" stroke-dashoffset="0px" pathLength="1" stroke-linecap="round" stroke-width="1.5" fill="transparent" points="215.90997314453125,10.012189626693726 217.80999755859375,3.0321884155273438 194.0999755859375,3.0321884155273438 186.15997314453125,32.62219214439392 210.07998657226562,32.62219214439392 211.9400177001953,25.64219641685486 196.12997436523438,25.64219641685486 197.39999389648438,20.952192068099976 211.51998901367188,20.952192068099976 213.25001525878906,14.492183446884155 199.12997436523438,14.492183446884155 200.36000061035156,10.012189626693726 215.90997314453125,10.012189626693726 "/>
   <path stroke="null" id="svg_7" stroke-dashoffset="0px" pathLength="1" stroke-linecap="round" stroke-width="1.5" fill="transparent" d="m241.31,3.03219l-4.39,16.28a15,15 0 0 1 -1.06,2.93a6.83,6.83 0 0 1 -1.44,2a5.37,5.37 0 0 1 -4,1.56a4.72,4.72 0 0 1 -3.42,-1.14a4.2,4.2 0 0 1 -1.19,-3.17a9,9 0 0 1 0.11,-1.39a9.65,9.65 0 0 1 0.32,-1.4l4.18,-15.64l-8.29,0l-4,15.06a18.15,18.15 0 0 0 -0.51,2.43a17,17 0 0 0 -0.17,2.3a9.61,9.61 0 0 0 3.11,7.63q3.1,2.73 8.85,2.73a19.42,19.42 0 0 0 6.17,-0.91a11.84,11.84 0 0 0 4.74,-2.89a19.39,19.39 0 0 0 4.6,-8.84l4.7,-17.5l-8.31,-0.04z"/>
   <polygon stroke="null" id="svg_8" stroke-dashoffset="0px" pathLength="1" stroke-linecap="round" stroke-width="1.5" fill="transparent" points="276.7699890136719,3.0321884155273438 266.7200012207031,14.492183446884155 262.7799987792969,3.0321884155273438 254.5,3.0321884155273438 246.54998779296875,32.62219214439392 254.66998291015625,32.62219214439392 259.19000244140625,15.71218466758728 263.54998779296875,27.212196111679077 263.7099914550781,27.212196111679077 274.3199768066406,15.632186651229858 269.79998779296875,32.62219214439392 278.03997802734375,32.62219214439392 285.989990234375,3.0321884155273438 276.7699890136719,3.0321884155273438 "/>
   <path stroke="null" id="svg_9" stroke-dashoffset="0px" pathLength="1" stroke-linecap="round" stroke-width="1.5" fill="transparent" d="m154.8,10.49219a12.3,12.3 0 0 0 -2.88,-4.2a13.51,13.51 0 0 0 -4.46,-2.79a15.64,15.64 0 0 0 -5.77,-1a17,17 0 0 0 -7.07,1.45a18,18 0 0 0 -5.58,3.87a17.45,17.45 0 0 0 -3.66,5.56a16.88,16.88 0 0 0 -1.31,6.53a13.62,13.62 0 0 0 1,5.26a12.43,12.43 0 0 0 2.88,4.21a13.61,13.61 0 0 0 4.46,2.79a15.85,15.85 0 0 0 5.77,1a17.09,17.09 0 0 0 7.08,-1.46a18.11,18.11 0 0 0 5.58,-3.87a17.44,17.44 0 0 0 3.65,-5.55a16.92,16.92 0 0 0 1.31,-6.53a13.7,13.7 0 0 0 -1,-5.27zm-8,9.22a10.8,10.8 0 0 1 -1.7,3a8.44,8.44 0 0 1 -2.67,2.22a7.79,7.79 0 0 1 -6.26,0.36a5.53,5.53 0 0 1 -2,-1.37a5.91,5.91 0 0 1 -1.24,-2.1a7.82,7.82 0 0 1 -0.42,-2.59a9.53,9.53 0 0 1 0.61,-3.32a10.67,10.67 0 0 1 1.72,-3.05a9.21,9.21 0 0 1 2.67,-2.22a7.23,7.23 0 0 1 3.49,-0.84a7.14,7.14 0 0 1 2.75,0.49a5.53,5.53 0 0 1 2,1.37a5.86,5.86 0 0 1 1.24,2.09a7.83,7.83 0 0 1 0.42,2.6a9.53,9.53 0 0 1 -0.62,3.36l0.01,0z"/>
  </g>
 </g>
</svg>